<svg width="115" height="100" viewBox="0 0 115 100" fill="none" xmlns="http://www.w3.org/2000/svg">
<path d="M42.2138 25.3014C42.2903 25.279 42.3558 25.2453 42.487 25.2116C42.5853 25.2004 42.6181 25.2004 42.6728 25.2116C42.7383 25.1892 42.782 25.1443 42.8367 25.0994C42.8367 25.0994 42.8367 25.0994 42.8694 25.0994C43.6781 24.8189 44.454 24.5384 45.2298 24.2355C45.4156 24.1682 45.5577 23.9999 45.7216 23.8764C45.7544 23.8652 45.7871 23.8428 45.8855 23.8203C45.9838 23.8091 46.0166 23.8091 46.0931 23.8091C46.2024 23.7979 46.2789 23.8091 46.3554 23.7755C47.5793 23.3379 48.7923 22.8891 50.0162 22.4627C50.803 22.1934 51.6116 21.9802 52.4093 21.711C53.2945 21.4192 54.1687 21.0826 55.0538 20.7909C56.5619 20.2972 58.0699 19.8035 59.5779 19.3435C60.8892 18.9396 62.2006 18.5805 63.5119 18.2103C64.7904 17.8512 66.069 17.4922 67.3584 17.1444C68.4731 16.8414 69.5986 16.5272 70.7242 16.2467C71.7404 15.9887 72.7677 15.7418 73.7839 15.495C76.035 14.9452 78.2752 14.4066 80.5263 13.8681C82.4387 13.408 84.351 12.9592 86.2634 12.5104C88.0774 12.0841 89.9023 11.6577 91.7163 11.2426C92.0988 11.1528 92.4812 11.0855 92.8528 11.0069C92.8637 11.0518 92.8746 11.0967 92.8856 11.1528C92.6779 11.2089 92.4812 11.2874 92.2736 11.3323C91.8256 11.4445 91.3557 11.5231 90.9186 11.6689C90.099 11.9382 89.2904 12.2636 88.4708 12.5441C87.0392 13.0266 85.5968 13.4866 84.1653 13.9578C83.8046 14.0812 83.444 14.2383 83.0834 14.3505C82.242 14.6198 81.3896 14.8667 80.5482 15.1472C79.4554 15.5174 78.3736 15.9214 77.2808 16.2916C76.9311 16.415 76.5705 16.4936 76.2317 16.6282C75.3357 16.9761 74.4396 17.3239 73.5544 17.6941C73.0518 17.9073 72.571 18.1542 72.0574 18.401C71.9699 18.4122 71.9044 18.4235 71.8169 18.4347C71.7295 18.4347 71.664 18.4347 71.6093 18.4571C71.0083 18.6927 70.4073 18.9284 69.8062 19.1752C69.0959 19.4557 68.3856 19.7474 67.6863 20.0392C67.6535 20.0504 67.6535 20.1177 67.6098 20.185C67.4568 20.2299 67.3366 20.2636 67.1727 20.2748C66.7028 20.4767 66.2766 20.6787 65.8067 20.8919C65.2275 21.0826 64.6812 21.2509 64.1457 21.4641C63.7742 21.61 63.4245 21.8119 63.0311 21.9915C62.4191 22.2383 61.8399 22.4851 61.2608 22.732C60.0259 23.2706 58.7802 23.7979 57.5563 24.3477C57.2066 24.5048 56.8788 24.7404 56.5182 24.9424C56.4526 24.9536 56.4198 24.9536 56.3542 24.9648C56.1575 25.077 55.9936 25.1892 55.7969 25.3014C55.7095 25.3126 55.6439 25.3351 55.5565 25.3351C55.4254 25.4136 55.3161 25.5034 55.185 25.5931C55.1194 25.6043 55.0866 25.6156 55.0211 25.6156C54.9446 25.6604 54.9009 25.7165 54.8244 25.7726C54.7588 25.7839 54.726 25.7951 54.6604 25.7951C54.4965 25.8736 54.3654 25.9634 54.2015 26.0644C54.0813 26.1093 53.9829 26.1429 53.8518 26.1654C53.4475 26.3673 53.0759 26.5805 52.6825 26.7937C52.617 26.8049 52.5842 26.8161 52.5186 26.8161C52.4421 26.861 52.3984 26.9171 52.3219 26.9732C52.2563 26.9844 52.2236 26.9956 52.158 26.9956C52.0487 27.0742 51.9722 27.1527 51.8739 27.2425C51.852 27.2425 51.8192 27.2537 51.7865 27.2537C51.6553 27.3098 51.557 27.3771 51.4368 27.4445C51.3712 27.4557 51.3384 27.4669 51.2729 27.4669C51.1964 27.5118 51.1526 27.5679 51.0762 27.6352C50.9559 27.6801 50.8576 27.7137 50.7265 27.7362C50.6172 27.8147 50.5407 27.8933 50.4314 27.983C50.2129 28.084 50.038 28.1738 49.8195 28.2635C49.6009 28.3869 49.4042 28.4991 49.1966 28.6226C49.131 28.6338 49.0982 28.645 49.0327 28.645C48.9343 28.7011 48.8578 28.7572 48.7704 28.8358C48.6611 28.948 48.5737 29.0489 48.4863 29.1387C48.4863 29.1387 48.4535 29.1499 48.3989 29.1499C48.2022 29.1948 48.0492 29.2397 47.8634 29.2733C47.7651 29.3294 47.6886 29.3855 47.6011 29.4529C47.5028 29.4977 47.4372 29.5314 47.3389 29.5538C47.2624 29.5987 47.2187 29.6548 47.175 29.7109C47.175 29.7109 47.175 29.7109 47.1422 29.7109C47.0438 29.767 46.9673 29.8231 46.869 29.8904C45.5904 30.6198 44.3119 31.3042 43.1099 32.1008C41.2849 33.2902 39.4819 34.5244 37.7116 35.7923C35.5916 37.3182 33.7011 39.1022 32.0292 41.1218C30.6851 42.7487 29.6141 44.544 29.2426 46.6982C28.9585 48.3813 29.0568 49.997 29.931 51.5005C30.1715 51.9156 30.4228 52.3308 30.6741 52.7459C30.6413 52.7683 30.6195 52.7908 30.5867 52.8244C30.4119 52.6674 30.2479 52.5103 30.0731 52.3644C28.0078 50.5692 26.1282 48.6169 24.8059 46.1597C23.9754 44.6113 23.5383 43.0068 23.6913 41.2116C23.8552 39.3603 24.5328 37.7333 25.6146 36.2972C26.3249 35.3547 27.1773 34.4907 28.0515 33.6941C29.0131 32.8189 30.0403 31.9886 31.1112 31.2705C32.5209 30.3393 33.9852 29.509 35.4605 28.6899C36.6188 28.0391 37.8099 27.4669 39.001 26.8834C39.7988 26.4907 40.6183 26.1317 41.4707 25.7614C41.6018 25.7053 41.7002 25.6492 41.8204 25.5595C41.9515 25.4473 42.0827 25.3799 42.2138 25.3014Z" fill="#8A0577"/>
<path d="M100.874 90.0193C98.5351 89.5256 96.5681 88.3924 94.9399 86.6869C93.2133 84.8692 92.1314 82.6813 91.7162 80.168C91.2572 77.3405 91.5851 74.614 92.8855 72.067C94.1968 69.4976 96.1419 67.5677 98.8083 66.4906C102.185 65.1218 105.518 65.2901 108.72 67.0067C111.266 68.3756 113.047 70.5074 114.052 73.29C115.003 75.8931 115.036 78.5635 114.457 81.2339C113.79 84.2858 112.053 86.642 109.55 88.3475C107.255 89.9071 104.687 90.5242 101.923 90.1764C101.595 90.109 101.256 90.0754 100.874 90.0193ZM106.49 84.0838C106.993 83.5565 107.605 83.0852 107.998 82.4793C109.725 79.7641 109.933 76.8805 108.468 74.0193C107.288 71.6968 105.387 70.4401 102.72 70.6645C100.294 70.8665 98.699 72.2802 97.7374 74.4345C96.7211 76.7122 96.7976 79.0684 97.7811 81.3685C98.4258 82.872 99.4749 83.994 100.939 84.6336C102.841 85.4639 104.687 85.2283 106.49 84.0838Z" fill="#880576"/>
<path d="M68.5713 84.14C66.954 86.5635 64.7247 88.0446 62.0474 88.8637C60.8017 89.2451 59.5231 89.4134 58.2227 89.4247C55.9716 89.4359 53.7205 89.4808 51.4694 89.5032C50.7154 89.5144 50.6389 89.4359 50.6389 88.6729C50.6389 81.3798 50.6389 74.0979 50.6389 66.8048C50.6389 66.1877 50.6936 66.0867 51.2399 66.0867C53.3381 66.0755 55.4362 66.0643 57.5343 66.0867C59.3483 66.1092 61.1186 66.4233 62.8342 67.0068C65.0526 67.7698 66.9321 69.0264 68.3418 70.9451C69.5657 72.6169 70.1339 74.5243 70.3088 76.6C70.4399 78.126 70.3197 79.6182 69.9373 81.0881C69.6531 82.1652 69.2488 83.2087 68.5713 84.14ZM64.6373 75.8258C63.9926 73.2564 62.2879 71.809 59.8619 71.2592C58.7691 71.0124 57.6326 70.99 56.5071 70.889C56.0372 70.8441 55.8405 71.1022 55.8514 71.6295C55.8733 72.7403 55.8951 73.8511 55.8951 74.9619C55.9061 78.0025 55.8951 81.0432 55.8951 84.0839C55.8951 84.3756 55.8733 84.6337 56.2885 84.6449C57.9277 84.7122 59.5231 84.5439 61.053 83.9043C62.8889 83.1302 64.1019 81.7725 64.6155 79.7978C64.9651 78.5075 64.9433 77.2059 64.6373 75.8258Z" fill="#880576"/>
<path d="M47.3933 77.5761C47.6774 80.7401 46.9453 83.5901 45.0876 86.0921C43.1752 88.6616 40.7274 90.3446 37.5584 90.9168C34.3566 91.489 31.4061 90.928 28.6742 89.1665C26.8274 87.9659 25.4614 86.3053 24.4233 84.3194C23.866 83.2535 23.5054 82.1427 23.3196 80.9533C23.2431 80.4709 22.9043 80.4709 22.5656 80.4035C21.7132 80.2352 21.1122 79.5284 21.0903 78.642C21.0685 77.6658 21.7679 76.8692 22.7951 76.7458C23.7348 76.6336 24.4998 76.2745 25.0243 75.4218C25.6144 74.4681 25.5161 73.189 24.773 72.3699C23.6037 71.0796 23.4726 69.6883 24.3796 68.3419C24.9478 67.5004 25.7893 67.3657 26.6963 67.3321C27.789 67.2872 28.4775 67.9604 29.1331 68.7234C29.7014 69.3853 30.4445 69.5424 31.2531 69.3741C32.2694 69.1609 32.9688 68.2184 33.0125 67.1189C33.0343 66.614 33.0671 66.1091 33.1436 65.6154C33.2529 64.9085 33.7556 64.5382 34.3784 64.3924C35.0341 64.2353 35.6679 64.3924 36.1378 64.9197C36.3345 65.1441 36.4656 65.4583 36.5749 65.75C36.717 66.1539 36.9464 66.3671 37.3508 66.4793C38.3889 66.7935 39.4707 67.0291 40.4433 67.5004C41.4705 68.0165 42.4431 68.7009 43.3392 69.4414C44.6505 70.5298 45.6449 71.8987 46.3333 73.4807C46.836 74.6252 47.1857 75.8257 47.3059 77.0824C47.3278 77.2282 47.3605 77.3853 47.3933 77.5761ZM42.8255 76.8131C42.4759 76.0389 42.2027 75.2198 41.7546 74.513C40.5744 72.6729 38.8588 71.6406 36.7716 71.203C34.6298 70.7542 32.6956 71.2479 30.9362 72.527C28.0513 74.6252 27.2754 77.7668 27.9311 80.886C28.1715 82.0305 28.7179 83.0403 29.4391 83.9155C29.9527 84.555 30.5647 85.1609 31.2422 85.6097C32.63 86.5297 34.1927 86.8327 35.8427 86.7654C38.0392 86.6756 39.8751 85.778 41.252 84.0613C42.9239 81.9856 43.4375 79.5508 42.8255 76.8131Z" fill="#880576"/>
<path d="M11.0044 76.8805C11.0044 77.1385 10.9497 77.419 11.059 77.5761C11.9441 78.7767 12.8621 79.9548 13.7691 81.1441C14.982 82.7374 16.195 84.3419 17.4189 85.9351C18.0964 86.8215 18.8067 87.6855 19.4843 88.5831C19.67 88.8299 19.8121 89.0992 20.0307 89.4583C19.7793 89.4807 19.6373 89.5144 19.4952 89.5144C17.7905 89.5144 16.0967 89.5031 14.392 89.5144C13.933 89.5144 13.6161 89.3461 13.3429 88.9758C12.5015 87.8538 11.6163 86.7654 10.764 85.6434C9.66026 84.1848 8.57841 82.7037 7.48564 81.2451C6.90648 80.4709 6.32731 79.6967 5.73721 78.9338C5.68257 78.8664 5.56237 78.7767 5.4968 78.7991C5.42031 78.8216 5.35474 78.945 5.34381 79.0347C5.32196 79.1806 5.33289 79.3377 5.33289 79.4948C5.33289 82.614 5.33289 85.7444 5.33289 88.8636C5.33289 89.5144 5.33289 89.5256 4.68815 89.5144C3.31126 89.5144 1.9453 89.4919 0.568407 89.5144C0.185937 89.5144 0.0766602 89.3797 0.0766602 89.0094C0.0875879 81.5368 0.0875879 74.0642 0.0766602 66.5916C0.0766602 66.2325 0.175009 66.0867 0.557479 66.0867C1.71582 66.0867 2.88508 66.0418 4.04342 66.0306C5.32196 66.0194 5.32196 66.0306 5.32196 67.3546C5.32196 70.0698 5.32196 72.7739 5.32196 75.4892C5.32196 75.7248 5.3766 75.9492 5.40938 76.1848C5.45309 76.196 5.4968 76.2073 5.52958 76.2185C5.86834 75.7809 6.2071 75.3545 6.52401 74.9169C7.93368 73.0095 9.34336 71.1021 10.753 69.1947C11.4087 68.3083 12.0862 67.4331 12.7309 66.5467C13.0151 66.154 13.3975 66.053 13.8237 66.0418C15.4082 66.0306 16.9818 66.0306 18.5663 66.0418C18.7521 66.0418 18.9488 66.0979 19.2766 66.154C16.5229 69.7669 13.8128 73.3461 11.0044 76.8805Z" fill="#880576"/>
<path d="M88.6457 86.5747C88.6457 87.3601 88.6457 88.0894 88.6348 88.83C88.6239 89.3236 88.46 89.4919 87.9792 89.4919C83.6846 89.4919 79.39 89.4919 75.0954 89.5032C74.7566 89.5032 74.5162 89.391 74.5053 88.987C74.5053 88.8075 74.4507 88.628 74.4507 88.4372C74.4507 86.2605 74.4397 84.0838 74.4507 81.9183C74.4616 79.3826 74.5053 76.8356 74.5053 74.2999C74.5053 71.9324 74.4616 69.5537 74.4507 67.1863C74.4397 66.1091 74.5381 66.0194 75.5871 66.0194C79.543 66.0194 83.4879 66.0194 87.4437 66.0194C88.46 66.0194 88.4709 66.0306 88.4709 67.0404C88.4709 68.1176 88.46 69.1835 88.4709 70.2606C88.4709 70.6309 88.3616 70.7767 87.9901 70.7767C85.8155 70.7879 83.6409 70.8216 81.4662 70.844C81.0073 70.844 80.5483 70.8216 80.0894 70.8553C79.9801 70.8665 79.7943 71.0572 79.7834 71.1807C79.7615 72.4036 79.7725 73.6266 79.7725 74.8384C79.7725 75.175 79.991 75.1862 80.2314 75.1862C81.6739 75.1638 83.1163 75.1301 84.5697 75.1301C85.3019 75.1301 86.0231 75.175 86.7553 75.1975C87.0394 75.1975 87.2142 75.3321 87.247 75.6126C87.2798 76.0278 87.2907 76.4317 87.3016 76.8468C87.3126 77.5537 87.3016 78.2606 87.3016 78.9562C87.2907 79.6406 87.1705 79.7641 86.5258 79.7641C84.4823 79.7641 82.4388 79.7753 80.3953 79.7641C79.9801 79.7641 79.7615 79.8426 79.7615 80.3363C79.7724 81.6715 79.7397 82.9955 79.7287 84.3307C79.7287 84.6897 79.9582 84.7683 80.2751 84.7683C82.7011 84.757 85.138 84.7683 87.5639 84.7683C88.6457 84.7683 88.6457 84.7795 88.6567 85.9015C88.6457 86.0922 88.6457 86.3166 88.6457 86.5747Z" fill="#880576"/>
<path d="M32.1275 13.61C32.1275 9.06582 32.1275 4.57776 32.1275 0.0448151C35.4385 0.0448151 38.7278 0.0448151 42.0498 0.0448151C42.0607 0.168237 42.0826 0.280439 42.0826 0.392641C42.0826 6.57494 42.0935 12.7573 42.0935 18.9396C42.0935 20.1401 42.0717 20.1064 40.957 20.5328C38.2798 21.5651 35.6243 22.6422 32.958 23.6969C32.8596 23.7306 32.7613 23.7754 32.6629 23.8091C32.2258 23.955 32.0837 23.8764 32.0837 23.3827C32.0837 21.4977 32.0947 19.624 32.1165 17.739C32.1056 16.3814 32.1165 15.0237 32.1275 13.61Z" fill="#F00078"/>
<path d="M64.2331 14.3618C63.0857 14.6198 61.9601 14.8667 60.8455 15.1248C58.7802 15.6072 56.7258 16.1009 54.6714 16.5946C53.371 16.9088 52.0706 17.2678 50.7702 17.5932C50.5844 17.6381 50.3768 17.6381 50.1801 17.6493C50.1582 17.6156 50.1364 17.5707 50.1145 17.5371C50.486 17.0322 50.8685 16.5385 51.2401 16.0336C52.2126 14.7545 53.1852 13.4866 54.1687 12.2187C55.4909 10.502 56.8241 8.80781 58.1464 7.0799C59.2938 5.5764 60.4193 4.05046 61.5667 2.54696C62.135 1.79521 62.7251 1.07712 63.2824 0.314151C63.4682 0.0560876 63.6867 -1.52588e-05 63.9708 -1.52588e-05C66.6809 0.0112049 69.4019 -1.52588e-05 72.112 -1.52588e-05C73.0955 -1.52588e-05 74.079 -1.52588e-05 75.0625 -1.52588e-05C75.2154 -1.52588e-05 75.3794 0.011207 75.6307 0.0336473C75.1062 0.740517 74.6363 1.39128 74.1555 2.01961C72.1885 4.57781 70.2215 7.12478 68.2436 9.67176C67.2054 11.007 66.1782 12.3646 65.1182 13.6886C64.8888 13.9579 64.55 14.1262 64.2331 14.3618Z" fill="#F00078"/>
<path d="M42.1046 37.5201C42.1046 42.9507 42.1046 48.3476 42.0937 53.7332C42.0937 54.4625 42.0937 54.4625 41.3615 54.4625C39.482 54.4625 37.6024 54.4513 35.7228 54.4625C35.2639 54.4625 34.9579 54.3167 34.7831 53.8679C34.1602 52.297 33.6029 50.7038 33.5264 48.9759C33.4062 46.5411 34.029 44.3195 35.2748 42.2662C36.8702 39.6295 39.0558 37.565 41.4599 35.7249C41.6129 35.6127 41.7877 35.5341 42.1046 35.3658C42.0937 36.1288 42.1046 36.802 42.1046 37.5201Z" fill="#EF0077"/>
<path d="M71.0737 48.3027C72.3304 49.694 73.5652 51.0629 74.8001 52.4205C75.2918 52.9591 75.7836 53.4752 76.2753 54.0138C76.3627 54.1035 76.3955 54.2494 76.4502 54.3616C76.319 54.4065 76.1879 54.4963 76.0677 54.4963C75.117 54.5075 74.1553 54.4963 73.2046 54.4963C70.5273 54.5187 67.8391 54.5411 65.1618 54.5523C64.7138 54.5523 64.233 54.6085 63.8396 54.4514C63.3478 54.2494 62.867 53.924 62.4955 53.5313C61.3044 52.2522 60.1788 50.9058 59.0095 49.6043C56.8568 47.2144 54.6603 44.8694 52.5294 42.4683C51.4476 41.2565 50.4204 39.9774 49.4041 38.7095C48.7812 37.9241 48.3659 37.0153 48.2676 36.0054C48.1583 34.8498 48.6391 33.9073 49.4369 33.0994C50.5187 31.9998 51.83 31.2369 53.1304 30.4851C55.5673 29.0938 58.026 27.725 60.5285 26.4571C62.3753 25.5146 64.2767 24.6843 66.2 23.9213C68.4729 23.0125 70.7787 22.2046 73.0844 21.3856C75.1388 20.645 77.2042 19.927 79.2804 19.2201C79.9907 18.9732 80.7338 18.8049 81.466 18.6142C81.5752 18.5918 81.6845 18.6142 81.8266 18.7152C81.3676 18.9284 80.8977 19.1415 80.4497 19.3659C78.439 20.3758 76.3955 21.3183 74.4285 22.4066C71.8933 23.8091 69.3909 25.2678 66.9321 26.7937C65.1728 27.882 63.5336 29.1499 62.0693 30.6422C61.053 31.6857 60.0477 32.7292 59.5887 34.1766C59.3811 34.8273 59.3702 35.4332 59.9165 36.0167C62.1567 38.4066 64.3532 40.8413 66.5497 43.2649C68.0468 44.9255 69.5548 46.6085 71.0737 48.3027ZM62.266 52.8918C62.5173 53.1723 62.7577 53.4752 63.0419 53.7108C63.3041 53.924 63.5992 54.1596 63.9051 54.227C64.375 54.3279 64.8777 54.3279 65.3695 54.3279C68.8335 54.3279 72.2976 54.3279 75.7617 54.3167C75.8273 54.3167 75.8928 54.2719 76.024 54.227C75.8928 54.0362 75.8054 53.8567 75.6852 53.7221C74.0679 51.9605 72.4288 50.2101 70.8224 48.4374C69.0521 46.4963 67.3146 44.5328 65.5552 42.5805C64.6045 41.5258 63.6647 40.4711 62.7031 39.4388C61.6978 38.3392 60.6705 37.2509 59.6543 36.1625C59.1079 35.5791 59.0423 34.9283 59.2827 34.1766C59.6871 32.9199 60.4848 31.9437 61.3371 31.0013C62.8889 29.2958 64.7138 27.9157 66.6043 26.6478C68.167 25.6044 69.8061 24.6731 71.4343 23.753C73.3576 22.6759 75.3137 21.6661 77.2479 20.6338C77.7068 20.387 78.1658 20.1401 78.6248 19.8933C78.4609 19.826 78.3297 19.826 78.2095 19.8709C76.1988 20.5553 74.1881 21.2285 72.1883 21.9354C70.7896 22.4291 69.4018 22.9676 68.014 23.5062C66.8338 23.955 65.6427 24.3701 64.4952 24.8863C62.8124 25.638 61.1514 26.4571 59.5013 27.2762C58.2118 27.9157 56.9223 28.5665 55.6547 29.2509C54.6603 29.7895 53.6987 30.3841 52.737 30.99C51.5787 31.7306 50.3548 32.3925 49.415 33.4472C48.7812 34.1541 48.3987 35.0068 48.4752 35.983C48.5517 36.8806 48.956 37.6997 49.4696 38.3953C50.2346 39.4276 51.0651 40.4037 51.8956 41.3687C52.8245 42.4346 53.8079 43.4668 54.7587 44.5215C56.4634 46.4065 58.1572 48.3027 59.8619 50.1989C60.6705 51.0741 61.4464 51.9493 62.266 52.8918Z" fill="#800041"/>
<path d="M28.3248 96.5493C28.5324 95.5732 28.7182 94.6307 28.9258 93.6657C29.2974 93.6657 29.658 93.6657 30.0623 93.6657C29.6143 95.6741 29.1662 97.6825 28.7182 99.7022C28.2702 99.7022 27.844 99.7022 27.385 99.7022C27.0463 98.4231 26.7075 97.1328 26.3578 95.8424C26.325 95.8424 26.3032 95.8424 26.2704 95.8312C25.9426 97.1215 25.6147 98.4119 25.2869 99.7022C24.8389 99.7022 24.4236 99.7022 23.9647 99.7022C23.5166 97.705 23.0686 95.6966 22.6096 93.6545C22.9921 93.6545 23.3746 93.6545 23.7898 93.6545C24.0849 95.0458 24.3799 96.4595 24.675 97.8733C24.7077 97.8733 24.7405 97.8845 24.7624 97.8845C25.1121 96.4708 25.4727 95.0682 25.8224 93.6657C25.8661 93.6433 25.8989 93.6209 25.9207 93.6209C26.8496 93.5984 26.8496 93.5984 27.0681 94.5072C27.3085 95.4834 27.5599 96.4596 27.8003 97.4357C27.8331 97.5703 27.8877 97.705 28.0188 97.8396C28.1281 97.4245 28.2155 96.9981 28.3248 96.5493Z" fill="#FAFAFA"/>
<path d="M72.0901 18.3785C72.5819 18.1429 73.0627 17.8848 73.5545 17.6829C74.4396 17.3126 75.3357 16.9648 76.2317 16.617C76.5705 16.4823 76.942 16.4038 77.2808 16.2804C78.3736 15.8989 79.4554 15.495 80.5482 15.1359C81.3896 14.8554 82.242 14.6086 83.0834 14.3393C83.444 14.2271 83.8046 14.07 84.1653 13.9466C85.5968 13.4753 87.0392 13.0153 88.4708 12.5328C89.2904 12.2523 90.099 11.9269 90.9186 11.6577C91.3557 11.5118 91.8256 11.4333 92.2736 11.3211C92.4812 11.265 92.6889 11.1976 92.8856 11.1415C92.8746 11.0967 92.8637 11.0518 92.8528 10.9957C92.4703 11.0742 92.0878 11.1528 91.7163 11.2313C89.9023 11.6577 88.0774 12.0728 86.2634 12.4992C84.351 12.948 82.4387 13.408 80.5263 13.8568C78.2752 14.3954 76.035 14.9452 73.7839 15.4837C72.7677 15.7306 71.7405 15.9662 70.7242 16.2355C69.5986 16.5272 68.484 16.8302 67.3584 17.1331C66.0799 17.4809 64.7904 17.84 63.5119 18.199C62.2006 18.5693 60.8783 18.9395 59.5779 19.3323C58.059 19.7923 56.5619 20.286 55.0539 20.7796C54.1687 21.0714 53.2945 21.408 52.4093 21.6997C51.6116 21.9578 50.803 22.1709 50.0162 22.4515C48.7923 22.8778 47.5793 23.3266 46.3554 23.7642C46.2898 23.7867 46.2133 23.7866 46.115 23.7754C46.1368 23.7081 46.1915 23.6632 46.2461 23.6184C46.3445 23.5959 46.4428 23.5622 46.5958 23.5286C46.6942 23.4949 46.7379 23.4613 46.7816 23.4388C48.5846 22.7768 50.3768 22.0924 52.1908 21.4529C53.4038 21.0153 54.6386 20.6338 55.8734 20.2299C56.9443 19.882 58.0262 19.5454 59.0971 19.2313C61.1187 18.6366 63.1513 18.0419 65.1838 17.4697C67.271 16.8863 69.3582 16.2916 71.4563 15.753C73.2157 15.3042 74.986 14.9227 76.7453 14.4964C77.7944 14.2383 78.8435 13.9466 79.9035 13.6997C82.0999 13.1836 84.2964 12.7124 86.4929 12.1962C87.8916 11.8708 89.2904 11.5118 90.6891 11.1864C92.1534 10.8386 93.6068 10.5132 95.0711 10.1878C96.142 9.9522 97.2129 9.71658 98.2839 9.50339C98.4696 9.46973 98.6663 9.46973 98.8739 9.51461C98.557 9.63804 98.2292 9.77268 97.9123 9.87366C96.8414 10.2103 95.7596 10.5356 94.6886 10.861C92.6452 11.4894 90.5908 12.1065 88.5473 12.7572C86.8098 13.2958 85.0832 13.8456 83.3566 14.429C81.9579 14.9003 80.581 15.4052 79.1822 15.8877C78.1659 16.2355 77.1497 16.5721 76.0678 16.9087C75.9586 16.9648 75.9148 17.0097 75.8602 17.0546C75.7946 17.0658 75.74 17.077 75.6089 17.0882C75.2592 17.2341 74.9751 17.3687 74.6909 17.5034C74.538 17.537 74.385 17.5707 74.1773 17.6268C74.0681 17.6829 74.0243 17.739 73.9806 17.7839C73.8823 17.7951 73.7839 17.8063 73.631 17.8175C73.2922 17.9634 73.0081 18.1093 72.724 18.2439C72.6584 18.2551 72.6037 18.2663 72.4726 18.2776C72.2978 18.3337 72.1994 18.3561 72.0901 18.3785Z" fill="#59024B"/>
<path d="M80.0018 98.4231C80.0018 98.8607 80.0018 99.2646 80.0018 99.7134C79.6412 99.7134 79.3024 99.7358 78.9746 99.7022C78.8544 99.691 78.7014 99.5451 78.6249 99.4217C77.9256 98.2884 77.248 97.1328 76.5596 95.9995C76.4722 95.8537 76.3848 95.719 76.2208 95.4722C76.2208 96.942 76.2208 98.2997 76.2208 99.691C75.8056 99.691 75.445 99.691 75.0625 99.691C75.0625 97.6826 75.0625 95.6854 75.0625 93.6321C75.4559 93.6321 75.8602 93.6096 76.2536 93.6433C76.3629 93.6545 76.494 93.8004 76.5596 93.9126C77.2153 94.9785 77.8709 96.0669 78.5266 97.1328C78.6031 97.2562 78.6796 97.3796 78.8326 97.6152C78.8326 96.2239 78.8326 94.9561 78.8326 93.6545C79.2478 93.6545 79.6084 93.6545 80.0018 93.6545C80.0018 95.2366 80.0018 96.8074 80.0018 98.4231Z" fill="#FCFCFC"/>
<path d="M41.4051 25.7391C40.5965 26.1093 39.7769 26.4684 38.9682 26.8611C37.7771 27.4445 36.586 28.028 35.4277 28.6675C33.9524 29.4866 32.4881 30.3169 31.0784 31.2482C29.9966 31.9663 28.9803 32.7966 28.0187 33.6717C27.1445 34.4684 26.2921 35.3211 25.5818 36.2748C24.4999 37.711 23.8224 39.3379 23.6585 41.1892C23.5055 42.9845 23.9426 44.5889 24.7731 46.1373C26.0845 48.6058 27.975 50.5468 30.0403 52.3421C30.2151 52.4879 30.3791 52.6562 30.5539 52.8021C30.5867 52.7797 30.6085 52.7572 30.6413 52.7235C30.39 52.3084 30.1386 51.8933 29.8982 51.4781C29.0349 49.9746 28.9257 48.3589 29.2098 46.6759C29.5813 44.5104 30.6413 42.7264 31.9964 41.0995C33.6683 39.0798 35.5697 37.2958 37.6788 35.7699C39.4491 34.502 41.2521 33.2678 43.077 32.0785C44.29 31.2931 45.5576 30.6086 46.869 29.8793C46.9673 29.8793 47.011 29.8793 47.0547 29.8793L47.0657 29.8905C46.705 30.1374 46.3554 30.4067 45.9729 30.6311C44.2682 31.6745 42.5088 32.617 40.8697 33.7615C39.0447 35.0294 37.3072 36.4431 35.5806 37.8456C34.6736 38.5862 33.8322 39.4165 33.0345 40.2804C31.7122 41.6941 30.5758 43.265 29.8764 45.1163C29.2644 46.7656 29.1114 48.4599 29.6032 50.1766C29.8982 51.1976 30.4665 52.0616 31.1112 52.8919C31.3625 53.206 31.592 53.5314 31.8324 53.8568C31.8106 53.8904 31.7887 53.9241 31.7669 53.9465C31.603 53.8568 31.4172 53.8007 31.2861 53.6885C29.8982 52.4206 28.4448 51.22 27.1445 49.8624C25.7566 48.4038 24.5764 46.7432 23.8989 44.7909C23.429 43.422 23.2323 42.042 23.4727 40.5721C23.8552 38.2608 24.9589 36.387 26.5216 34.7489C28.3465 32.819 30.4665 31.2931 32.7067 29.913C35.3402 28.2861 38.1377 26.9957 40.9352 25.7279C41.0991 25.6493 41.274 25.6157 41.4707 25.582C41.4598 25.6493 41.427 25.6942 41.4051 25.7391Z" fill="#37012E"/>
<path d="M100.994 94.5522C101.977 93.0936 104.961 93.2283 105.496 94.8215C105.212 95.001 104.917 95.1918 104.589 95.405C104.185 94.6644 103.573 94.4849 102.83 94.6196C102.294 94.7205 101.945 95.0347 101.781 95.562C101.551 96.3138 101.551 97.0768 101.792 97.8173C102.065 98.6812 103.19 99.074 103.933 98.5691C104.349 98.2886 104.381 97.8397 104.37 97.3348C103.911 97.3348 103.463 97.3348 102.994 97.3348C102.994 96.987 102.994 96.6841 102.994 96.3587C103.824 96.3587 104.655 96.3587 105.518 96.3587C105.518 97.4583 105.518 98.5578 105.518 99.6911C105.168 99.6911 104.818 99.6911 104.425 99.6911C104.425 99.433 104.425 99.1862 104.425 98.7822C103.857 99.8257 103.07 99.9267 102.174 99.7135C101.256 99.4891 100.764 98.8271 100.568 97.9407C100.316 96.7738 100.305 95.6294 100.994 94.5522Z" fill="#F9F9F9"/>
<path d="M69.3143 99.5002C69.2269 99.6011 69.1504 99.7021 69.0629 99.7021C68.7679 99.7246 68.4729 99.7134 68.145 99.7134C68.145 97.6825 68.145 95.6741 68.145 93.6432C68.5275 93.6432 68.899 93.6432 69.3034 93.6432C69.3034 94.395 69.3034 95.1355 69.3034 95.8985C70.1885 95.8985 71.0409 95.8985 71.926 95.8985C71.926 95.158 71.926 94.4062 71.926 93.6545C72.3413 93.6545 72.7019 93.6545 73.0953 93.6545C73.0953 95.6741 73.0953 97.6825 73.0953 99.7021C72.7128 99.7021 72.3413 99.7021 71.9369 99.7021C71.9369 98.7933 71.9369 97.8957 71.9369 96.9756C71.0409 96.9756 70.1885 96.9756 69.3034 96.9756C69.3143 97.8171 69.3143 98.6362 69.3143 99.5002Z" fill="#F7F7F7"/>
<path d="M81.6082 96.0782C82.0125 93.9912 83.597 93.0263 85.4547 93.722C85.9902 93.9239 86.4273 94.2605 86.6895 94.7879C87.2906 96.0333 87.3015 97.3012 86.6895 98.5354C86.1978 99.5003 85.0613 99.9716 83.8811 99.7696C82.7009 99.5789 81.9141 98.8496 81.6956 97.6602C81.6082 97.1553 81.63 96.628 81.6082 96.0782ZM85.717 95.4611C85.3782 94.7879 84.8755 94.4962 84.1652 94.5859C83.4659 94.6645 83.0069 95.0459 82.9085 95.7977C82.8321 96.4036 82.843 97.0543 82.9413 97.649C83.0725 98.4008 83.6079 98.7486 84.3729 98.7374C85.1269 98.7262 85.6842 98.3559 85.7716 97.6041C85.859 96.9309 85.7607 96.224 85.717 95.4611Z" fill="#F9F9F9"/>
<path d="M95.9123 93.5536C96.2948 93.5648 96.6445 93.5312 96.9723 93.5873C98.0214 93.778 98.688 94.4288 98.9721 95.4947C99.1688 96.2577 99.1797 97.0319 98.983 97.8061C98.6552 99.0964 97.7372 99.792 96.3931 99.8033C95.0162 99.8145 94.0109 99.13 93.7596 97.8285C93.6175 97.088 93.6175 96.2689 93.7486 95.5284C93.9453 94.3727 94.7321 93.7331 95.9123 93.5536ZM97.0597 98.6027C97.2892 98.311 97.6061 98.0641 97.7263 97.7387C97.9777 97.0431 97.9449 96.2913 97.7373 95.5732C97.5406 94.9113 97.0488 94.5747 96.3494 94.5747C95.6391 94.5747 95.0927 94.9225 94.9398 95.5957C94.8305 96.0894 94.7977 96.6279 94.8305 97.1329C94.907 98.4456 95.7593 99.0178 97.0597 98.6027Z" fill="#F9F9F9"/>
<path d="M10.6 94.5073C11.3759 95.7527 11.3868 97.0542 10.8732 98.3446C10.4361 99.4441 9.23407 99.9827 7.95553 99.7807C6.67699 99.5676 5.85741 98.7148 5.71535 97.3684C5.66071 96.8747 5.66071 96.3586 5.7372 95.8649C5.90112 94.7766 6.45843 93.9463 7.5512 93.677C8.68768 93.374 9.7586 93.4975 10.6 94.5073ZM9.23407 98.5465C9.4417 98.2436 9.80231 97.9631 9.84602 97.6377C9.94437 96.9869 9.94437 96.3025 9.84602 95.6517C9.72582 94.9224 9.1685 94.5746 8.44727 94.5634C7.71512 94.5634 7.19059 94.9112 7.0376 95.6405C6.92832 96.1342 6.89554 96.6728 6.93925 97.1777C7.07038 98.5241 7.9446 99.0514 9.23407 98.5465Z" fill="#FAFAFA"/>
<path d="M40.7277 96.8186C40.9463 97.0991 41.2085 97.3347 41.3287 97.6265C41.6019 98.2885 41.7986 98.9729 42.039 99.691C41.6347 99.691 41.2522 99.691 40.826 99.691C40.684 99.2534 40.5201 98.7821 40.378 98.3109C40.0283 97.2113 39.9081 97.1328 38.7279 97.2113C38.7279 98.0192 38.7279 98.8382 38.7279 99.691C38.3017 99.691 37.9302 99.691 37.5259 99.691C37.5259 97.6826 37.5259 95.6854 37.5259 93.677C38.5203 93.677 39.5147 93.6209 40.5091 93.6994C41.2413 93.7555 41.6675 94.3165 41.7658 95.0458C41.8532 95.7639 41.5691 96.2688 40.8916 96.6391C40.8042 96.6615 40.7605 96.7289 40.7277 96.8186ZM40.5638 95.1468C40.3234 94.5746 39.6786 94.3951 38.7061 94.6419C38.7061 95.158 38.7061 95.6629 38.7061 96.2127C39.0339 96.2127 39.3399 96.2127 39.6459 96.2127C40.3671 96.2127 40.6075 95.9547 40.5638 95.1468Z" fill="#F8F8F8"/>
<path d="M35.9739 98.7485C36.0832 99.0851 36.1815 99.3768 36.2908 99.7022C35.8646 99.7022 35.4821 99.7022 35.0669 99.7022C34.9139 99.2534 34.7609 98.7934 34.6079 98.3221C33.9195 98.3221 33.2529 98.3109 32.5863 98.3333C32.477 98.3333 32.324 98.4568 32.2912 98.569C32.1492 98.9392 32.0399 99.3207 31.9088 99.7022C31.5154 99.7022 31.1329 99.7022 30.6958 99.7022C31.3733 97.6714 32.0508 95.6629 32.7284 93.6545C32.7939 93.6433 32.8376 93.6321 32.8813 93.6321C33.3294 93.6321 33.8976 93.475 34.1817 93.6994C34.4877 93.935 34.5533 94.5297 34.7063 94.9673C35.1215 96.2127 35.5368 97.4582 35.9739 98.7485ZM34.0615 97.2899C34.1162 97.245 34.2364 97.1889 34.2364 97.1664C34.0069 96.4147 33.7665 95.6629 33.5261 94.9112C33.1982 95.6293 32.9688 96.3362 32.7502 97.043C32.7284 97.1103 32.7393 97.1889 32.7284 97.3011C33.1545 97.2899 33.5698 97.2899 34.0615 97.2899Z" fill="#FAFAFA"/>
<path d="M45.5248 99.7134C44.8036 99.7134 44.1151 99.7134 43.4158 99.7134C43.4158 97.6713 43.4158 95.6741 43.4158 93.6432C44.7052 93.6432 46.0056 93.6432 47.3279 93.6432C47.3279 93.9462 47.3279 94.2604 47.3279 94.6306C46.4318 94.6306 45.5357 94.6306 44.6178 94.6306C44.6178 95.1243 44.6178 95.5507 44.6178 96.0331C45.4046 96.0331 46.1805 96.0331 46.9891 96.0331C46.9891 96.381 46.9891 96.6727 46.9891 97.0205C46.2023 97.0205 45.4265 97.0205 44.6178 97.0205C44.6178 97.5927 44.6178 98.1201 44.6178 98.6811C45.5357 98.6811 46.4537 98.6811 47.3935 98.6811C47.3935 99.0289 47.3935 99.3431 47.3935 99.7021C46.7815 99.7134 46.1805 99.7134 45.5248 99.7134Z" fill="#F8F8F8"/>
<path d="M59.9278 99.7134C58.7586 99.7134 57.6221 99.7134 56.4856 99.7134C56.4856 97.6713 56.4856 95.6741 56.4856 93.6432C57.786 93.6432 59.0755 93.6432 60.3977 93.6432C60.3977 93.9574 60.3977 94.2716 60.3977 94.6306C59.5016 94.6306 58.5946 94.6306 57.6876 94.6306C57.6876 95.1131 57.6876 95.5507 57.6876 96.0331C58.4744 96.0331 59.2612 96.0331 60.0699 96.0331C60.0699 96.381 60.0699 96.6727 60.0699 97.0205C59.2831 97.0205 58.4963 97.0205 57.6986 97.0205C57.6986 97.5927 57.6986 98.1201 57.6986 98.6811C58.6165 98.6811 59.5344 98.6811 60.4742 98.6811C60.4742 99.0289 60.4742 99.3431 60.4742 99.7021C60.2884 99.7134 60.1354 99.7134 59.9278 99.7134Z" fill="#F8F8F8"/>
<path d="M1.03813 93.8117C2.22925 93.2956 3.56243 93.4975 4.29459 94.3054C4.09789 94.5747 3.90119 94.8552 3.68264 95.1469C3.22368 94.6981 2.69914 94.5073 2.10905 94.5747C1.73751 94.6195 1.37689 94.7093 1.33318 95.1805C1.28947 95.6518 1.62823 95.8201 1.98884 95.9098C2.42595 96.022 2.86306 96.0894 3.28924 96.224C4.15253 96.4933 4.56778 97.1104 4.535 98.008C4.50222 98.9056 4.01047 99.534 3.12532 99.7135C1.99977 99.9379 0.950712 99.8145 0.131134 98.8832C0.087423 98.8271 0.0546385 98.7598 0 98.67C0.218554 98.4007 0.426182 98.1314 0.677519 97.8173C0.797724 97.9407 0.885144 98.0529 0.983494 98.1539C1.47524 98.67 2.06534 98.8271 2.74286 98.7037C3.07069 98.6476 3.27831 98.4456 3.3111 98.0866C3.34388 97.7163 3.22367 97.4358 2.87399 97.3348C2.41502 97.1889 1.95606 97.088 1.4971 96.9533C0.808652 96.7514 0.284122 96.3362 0.185772 95.562C0.087423 94.7991 0.338759 94.2044 1.03813 93.8117Z" fill="#F9F9F9"/>
<path d="M61.6979 97.346C61.7088 96.7626 61.6433 96.2016 61.7525 95.6742C62.135 93.7668 64.4189 92.858 65.9925 93.9688C66.2985 94.1932 66.517 94.5522 66.8121 94.8776C66.4296 95.1132 66.1346 95.2927 65.7958 95.5059C65.5335 94.8439 65.0527 94.5634 64.397 94.5634C63.6649 94.5747 63.1294 94.9786 62.9764 95.7079C62.889 96.1679 62.8672 96.6504 62.889 97.1216C62.9327 98.0305 63.3808 98.5915 64.0911 98.7149C64.9762 98.8608 65.457 98.569 65.8614 97.5704C66.1564 97.7275 66.4624 97.8734 66.7465 98.0192C66.6372 99.0627 65.7412 99.7696 64.5391 99.792C62.9546 99.8257 61.9274 98.9617 61.6979 97.346Z" fill="#F9F9F9"/>
<path d="M12.7854 99.5001C12.7854 97.5254 12.7854 95.6068 12.7854 93.6544C14.0421 93.6544 15.266 93.6544 16.5336 93.6544C16.5336 93.9686 16.5336 94.294 16.5336 94.653C15.6812 94.653 14.8507 94.653 14.0093 94.653C14.0093 95.1804 14.0093 95.6853 14.0093 96.2127C14.7633 96.2127 15.5173 96.2127 16.3041 96.2127C16.3041 96.5605 16.3041 96.8746 16.3041 97.2225C15.561 97.2225 14.807 97.2225 14.0093 97.2225C14.0093 98.064 14.0093 98.8606 14.0093 99.7133C13.6268 99.7133 13.2881 99.7246 12.9493 99.7021C12.8947 99.7021 12.84 99.6011 12.7854 99.5001Z" fill="#F7F7F7"/>
<path d="M107.933 93.8789C108.348 94.6195 108.753 95.3263 109.19 96.0893C109.594 95.3488 109.977 94.698 110.326 94.0248C110.479 93.7106 110.665 93.5648 111.015 93.6096C111.244 93.6433 111.485 93.6209 111.801 93.6209C111.419 94.3165 111.113 94.9897 110.698 95.5956C109.933 96.7064 109.594 97.8957 109.758 99.2422C109.78 99.3768 109.758 99.5115 109.758 99.6798C109.354 99.6798 108.982 99.6798 108.556 99.6798C108.556 99.0065 108.567 98.3446 108.545 97.6713C108.534 97.4357 108.469 97.1889 108.359 96.9869C107.769 95.8761 107.157 94.7878 106.512 93.6209C106.917 93.6209 107.266 93.5984 107.616 93.6321C107.725 93.6433 107.813 93.7779 107.933 93.8789Z" fill="#F8F8F8"/>
<path d="M19.0469 96.583C19.0469 95.921 19.0469 95.3151 19.0469 94.6643C18.4896 94.6643 17.9542 94.6643 17.375 94.6643C17.375 94.3053 17.375 93.9799 17.375 93.6321C18.8721 93.6321 20.3801 93.6321 21.91 93.6321C21.91 93.9575 21.91 94.2828 21.91 94.6419C21.3527 94.6419 20.8063 94.6419 20.2271 94.6419C20.2271 96.3361 20.2271 97.9967 20.2271 99.6797C19.8337 99.6797 19.4622 99.6797 19.0469 99.6797C19.0469 98.6699 19.0469 97.6489 19.0469 96.583Z" fill="#FCFCFC"/>
<path d="M54.9882 94.6419C54.4746 94.6419 54.0047 94.6419 53.4911 94.6419C53.4911 96.3361 53.4911 97.9967 53.4911 99.6797C53.0977 99.6797 52.7262 99.6797 52.3219 99.6797C52.3219 98.0304 52.3219 96.3698 52.3219 94.6531C51.7318 94.6531 51.1854 94.6531 50.6062 94.6531C50.6062 94.2828 50.6062 93.9687 50.6062 93.6321C52.1361 93.6321 53.6441 93.6321 55.2723 93.6321C55.1849 94.0023 55.0975 94.3277 54.9882 94.6419Z" fill="#FAFAFA"/>
<path d="M90.0007 99.7133C89.5745 99.7133 89.1811 99.7133 88.7659 99.7133C88.7659 97.6937 88.7659 95.6853 88.7659 93.6544C89.1265 93.6544 89.4871 93.6544 89.8914 93.6544C89.8914 95.315 89.8914 96.9868 89.8914 98.7035C90.7984 98.7035 91.6726 98.7035 92.5578 98.7035C92.5578 99.0513 92.5578 99.3431 92.5578 99.7133C91.7273 99.7133 90.8858 99.7133 90.0007 99.7133Z" fill="#FEFEFE"/>
<path d="M22.0851 74.9954C21.2546 74.1875 21.2327 73.2675 21.9977 72.6167C22.4457 72.2352 23.1997 72.2015 23.7133 72.5381C24.2051 72.8635 24.4564 73.5928 24.2925 74.1987C24.1067 74.8495 23.6477 75.2422 22.9921 75.231C22.697 75.2198 22.402 75.0963 22.0851 74.9954Z" fill="#E20072"/>
<path d="M32.1386 66.6701C32.2806 67.7135 31.3955 68.398 30.6415 68.3307C29.8656 68.2633 29.3083 67.6687 29.2974 66.8384C29.2974 66.0754 29.8656 65.4359 30.6087 65.3685C31.4392 65.3124 31.9747 65.75 32.1386 66.6701Z" fill="#E20072"/>
<path d="M19.9212 71.6743C20.1288 72.3138 19.5387 72.8412 19.0579 72.9085C18.5006 72.987 17.9433 72.6056 17.8449 72.0782C17.7356 71.5172 18.0853 70.9562 18.6426 70.8328C19.1016 70.7318 19.7791 70.8552 19.9212 71.6743Z" fill="#D9006F"/>
<path d="M34.783 61.2284C35.1436 61.9016 35.0562 62.5299 34.5645 62.8217C34.0618 63.1246 33.4826 62.99 33.1439 62.5075C32.8488 62.0811 32.9362 61.4416 33.3296 61.105C33.7886 60.7123 34.3022 60.7459 34.783 61.2284Z" fill="#D9006F"/>
<path d="M22.6423 65.5704C22.992 65.2002 23.3745 64.9421 23.8444 65.0655C24.2378 65.1665 24.4236 65.5256 24.511 65.9183C24.5984 66.3783 24.3908 66.8608 24.0192 67.0515C23.6258 67.2535 23.0467 67.1525 22.7407 66.8159C22.4238 66.4793 22.391 66.0641 22.6423 65.5704Z" fill="#D9006F"/>
<path d="M56.5291 24.9087C56.8678 24.7067 57.1847 24.4823 57.5453 24.3253C58.7692 23.7755 60.015 23.2481 61.2498 22.7096C61.829 22.4627 62.4082 22.2159 63.0201 21.969C63.0638 21.969 63.0638 21.9802 63.0529 22.0027C62.9873 22.07 62.9436 22.1149 62.889 22.1598C62.889 22.1598 62.889 22.1598 62.8562 22.1598C62.7797 22.2159 62.736 22.2607 62.6923 22.3168C62.6267 22.3281 62.5721 22.3393 62.4519 22.3505C62.3426 22.4066 62.2989 22.4515 62.2552 22.5076C62.1568 22.5413 62.0585 22.5749 61.9055 22.6198C61.7744 22.6871 61.6979 22.7432 61.6323 22.7881C61.5995 22.7993 61.5558 22.7993 61.4684 22.8105C61.37 22.8666 61.3154 22.9115 61.2717 22.9564C61.1515 23.0013 61.0313 23.0349 60.8455 23.0798C60.7362 23.1359 60.6925 23.1808 60.6379 23.2369C60.5723 23.2481 60.5177 23.2593 60.3975 23.2706C60.2882 23.3267 60.2445 23.3715 60.1898 23.4164C60.0696 23.4613 59.9494 23.495 59.7637 23.5398C59.6544 23.5959 59.6107 23.6408 59.556 23.6969C59.3156 23.7979 59.0643 23.8877 58.7692 23.9999C58.66 24.056 58.6162 24.1009 58.5725 24.157C58.507 24.1682 58.4523 24.1794 58.3321 24.1906C58.2228 24.2467 58.1791 24.2916 58.1354 24.3365C57.895 24.4262 57.6546 24.5272 57.3486 24.6394C57.2394 24.7067 57.1956 24.7516 57.1519 24.8077C57.1192 24.8189 57.0864 24.8302 56.988 24.8414C56.7913 24.8526 56.6602 24.8863 56.5291 24.9087Z" fill="#59024B"/>
<path d="M22.9589 56.9871C23.0463 56.8749 23.1009 56.7402 23.1774 56.729C23.4178 56.6953 23.7457 56.6168 23.8987 56.7402C24.0517 56.8636 24.1282 57.2451 24.0517 57.4471C23.9861 57.6266 23.6473 57.8286 23.4725 57.7949C23.2649 57.75 23.1009 57.4807 22.937 57.2788C22.9042 57.2227 22.948 57.0993 22.9589 56.9871Z" fill="#D9006F"/>
<path d="M67.6208 20.129C67.6427 20.0841 67.6427 20.0168 67.6755 20.0056C68.3858 19.7138 69.0852 19.4221 69.7955 19.1416C70.3965 18.8948 70.9975 18.6591 71.5985 18.4235C71.6532 18.4011 71.7187 18.4123 71.8062 18.4347C71.828 18.5245 71.8171 18.5694 71.8171 18.6255C71.3144 18.8162 70.8008 19.0182 70.2326 19.2089C70.0359 19.2987 69.8938 19.3772 69.7627 19.4558C69.6097 19.5006 69.4676 19.5455 69.26 19.5904C69.1507 19.6353 69.0961 19.6914 69.0524 19.7363C68.8994 19.7699 68.7464 19.8036 68.5388 19.8485C68.4295 19.9046 68.3858 19.9607 68.3312 20.0056C68.1782 20.0392 68.0252 20.0729 67.8175 20.1178C67.7083 20.1402 67.6646 20.129 67.6208 20.129Z" fill="#59024B"/>
<path d="M45.6997 23.8652C45.5686 23.9998 45.4156 24.1682 45.2298 24.2467C44.4649 24.5496 43.6781 24.8189 42.8804 25.0882C42.9132 25.0209 42.9569 24.976 43.0115 24.9311C43.3175 24.8077 43.6125 24.6843 43.9841 24.5609C44.148 24.5048 44.2573 24.4487 44.3556 24.3926C44.4321 24.3701 44.5086 24.3589 44.6397 24.314C44.8255 24.213 44.9566 24.1345 45.0878 24.0447C45.1533 24.0335 45.208 24.0223 45.3282 24.0111C45.4375 23.9662 45.4812 23.9101 45.5358 23.8652C45.5795 23.854 45.6232 23.8428 45.6997 23.8652Z" fill="#59024B"/>
<path d="M63.0527 21.969C63.4133 21.7895 63.763 21.5875 64.1236 21.4416C64.6591 21.2285 65.2055 21.0602 65.7847 20.8694C65.8284 20.8694 65.8284 20.8806 65.8174 20.9031C65.7519 20.9704 65.6972 21.0153 65.6535 21.0602C65.6535 21.0602 65.6098 21.0714 65.5661 21.0714C65.4678 21.1275 65.424 21.1724 65.3694 21.2172C65.3038 21.2285 65.2492 21.2397 65.129 21.2509C65.0306 21.2846 64.9869 21.307 64.9432 21.3407C64.6373 21.4641 64.3313 21.5875 63.9707 21.7109C63.8614 21.767 63.8177 21.8119 63.763 21.8568C63.6975 21.868 63.6428 21.8792 63.5117 21.8905C63.315 21.9241 63.1948 21.9578 63.0637 21.9802C63.0637 21.9802 63.0637 21.969 63.0527 21.969Z" fill="#59024B"/>
<path d="M55.5567 25.3126C55.6223 25.3014 55.6769 25.2902 55.7971 25.279C55.8736 25.2902 55.8955 25.2902 55.9173 25.3014C55.5348 25.537 55.1633 25.7951 54.7699 25.9971C54.3109 26.2327 53.8301 26.4346 53.3384 26.6142C53.4914 26.4346 53.6771 26.2888 53.852 26.1429C53.9503 26.1093 54.0487 26.0756 54.2017 26.0419C54.3984 25.9522 54.5295 25.8624 54.6606 25.7839C54.6934 25.7727 54.7262 25.7614 54.8136 25.7502C54.912 25.6941 54.9666 25.6492 55.0103 25.5931C55.0431 25.5819 55.0868 25.5819 55.1742 25.5595C55.3491 25.4697 55.4584 25.3912 55.5567 25.3126Z" fill="#37012E"/>
<path d="M65.8286 20.8695C66.2548 20.6563 66.681 20.4544 67.1399 20.2748C67.0744 20.3983 66.987 20.4768 66.8886 20.5666C66.823 20.5778 66.7684 20.589 66.6482 20.6002C66.5389 20.6563 66.4952 20.7012 66.4406 20.7461C66.4078 20.7573 66.3641 20.7573 66.2657 20.7685C66.08 20.8022 65.9488 20.8358 65.8286 20.8695C65.8395 20.8807 65.8395 20.8695 65.8286 20.8695Z" fill="#59024B"/>
<path d="M47.8633 29.2622C48.0163 29.2173 48.1583 29.1724 48.3441 29.1387C47.9616 29.3856 47.5355 29.6437 47.0874 29.8905C47.0546 29.8905 47.0437 29.8905 47.0546 29.8568C47.0874 29.7895 47.1093 29.7446 47.1311 29.6998C47.1311 29.6998 47.1311 29.6998 47.1639 29.6885C47.2404 29.6437 47.2841 29.5876 47.3278 29.5427C47.3934 29.509 47.4699 29.4754 47.5901 29.4305C47.7212 29.3632 47.7977 29.3071 47.8633 29.2622Z" fill="#37012E"/>
<path d="M52.158 26.962C52.1908 26.9508 52.2236 26.9395 52.3219 26.9283C52.4203 26.8722 52.4749 26.8273 52.5186 26.7712C52.5514 26.76 52.5951 26.76 52.6934 26.7488C52.8792 26.7151 53.0103 26.6815 53.1415 26.659C52.6825 26.9059 52.2345 27.1415 51.7537 27.3659C51.7537 27.2986 51.7755 27.2537 51.7974 27.2088C51.7974 27.2088 51.8411 27.1976 51.8848 27.1976C52.005 27.1303 52.0815 27.0517 52.158 26.962Z" fill="#37012E"/>
<path d="M48.4863 29.1163C48.541 29.0153 48.6284 28.9143 48.7705 28.8021C48.8907 28.7235 48.9671 28.6787 49.0327 28.6226C49.0655 28.6113 49.1092 28.6113 49.1966 28.5889C49.4152 28.5216 49.5682 28.4655 49.7321 28.4094L49.743 28.4206C49.3387 28.6562 48.9234 28.8919 48.4863 29.1163Z" fill="#37012E"/>
<path d="M53.1631 26.659C53.0101 26.6927 52.879 26.7264 52.7151 26.7488C53.0538 26.5356 53.4145 26.3337 53.8188 26.1205C53.6767 26.2776 53.491 26.4234 53.3052 26.5917C53.2615 26.6366 53.2287 26.6478 53.1631 26.659Z" fill="#59024B"/>
<path d="M51.2621 27.422C51.2948 27.4108 51.3386 27.4108 51.426 27.3996C51.5243 27.3996 51.568 27.3996 51.6117 27.4108C51.3276 27.5903 51.0435 27.7586 50.7266 27.9045C50.7047 27.8147 50.7047 27.7586 50.7157 27.7025C50.814 27.6689 50.9014 27.6352 51.0544 27.5903C51.1746 27.523 51.2183 27.4781 51.2621 27.422Z" fill="#37012E"/>
<path d="M49.8191 28.2298C50.0049 28.14 50.1907 28.0391 50.4311 27.9493C50.5076 27.9493 50.5294 27.9605 50.5513 27.9605C50.2999 28.1064 50.0595 28.2635 49.7754 28.4093C49.7426 28.4093 49.7317 28.4093 49.7426 28.3757C49.7754 28.3196 49.7973 28.2747 49.8191 28.2298Z" fill="#37012E"/>
<path d="M66.9324 20.5776C66.987 20.4879 67.0854 20.3981 67.1837 20.2859C67.3148 20.2298 67.446 20.2074 67.599 20.1625C67.6645 20.14 67.7082 20.1513 67.7847 20.1513C67.5334 20.2859 67.2493 20.4318 66.9324 20.5776Z" fill="#37012E"/>
<path d="M56.4962 24.9087C56.6492 24.8751 56.7913 24.8526 56.9552 24.8302C56.7366 24.976 56.4853 25.1219 56.2012 25.2341C56.234 25.1107 56.2995 25.0321 56.3651 24.9424C56.3979 24.9312 56.4416 24.9199 56.4962 24.9087Z" fill="#37012E"/>
<path d="M74.7236 17.537C74.975 17.3912 75.2591 17.2565 75.576 17.1107C75.3247 17.2565 75.0405 17.4024 74.7236 17.537Z" fill="#37012E"/>
<path d="M72.7456 18.2776C72.9969 18.1317 73.2811 17.9971 73.598 17.8512C73.3576 17.9971 73.0734 18.1317 72.7456 18.2776Z" fill="#37012E"/>
<path d="M71.8497 18.6366C71.8278 18.5805 71.8278 18.5244 71.8387 18.4458C71.9043 18.4122 71.9589 18.401 72.0573 18.3785C72.1884 18.3449 72.2977 18.3224 72.4288 18.3C72.2758 18.4122 72.0791 18.5356 71.8497 18.6366Z" fill="#37012E"/>
<path d="M56.3325 24.9311C56.2997 25.0208 56.2451 25.1106 56.1686 25.2228C56.103 25.2565 56.0375 25.2677 55.95 25.2901C55.8954 25.2901 55.8845 25.2901 55.8298 25.2789C55.9719 25.1555 56.1358 25.0433 56.3325 24.9311Z" fill="#59024B"/>
<path d="M42.203 25.279C42.0827 25.38 41.9516 25.4473 41.7658 25.5483C41.6675 25.5595 41.6238 25.5595 41.5801 25.5595C41.7768 25.4473 41.9844 25.3463 42.203 25.279Z" fill="#37012E"/>
<path d="M65.8284 20.9032C65.9705 20.8471 66.0907 20.8134 66.2546 20.7798C66.1016 20.8695 65.9158 20.9593 65.6973 21.0603C65.7082 21.0042 65.7628 20.9593 65.8284 20.9032Z" fill="#37012E"/>
<path d="M63.0528 22.0027C63.1949 21.9466 63.326 21.9241 63.4899 21.8905C63.3369 21.9802 63.1512 22.07 62.9326 22.1598C62.9435 22.1149 62.9873 22.07 63.0528 22.0027Z" fill="#37012E"/>
<path d="M42.9896 24.9198C42.9787 24.9647 42.924 25.0096 42.8585 25.0769C42.8475 25.0994 42.8475 25.0994 42.8148 25.0994C42.7492 25.133 42.7055 25.1667 42.6618 25.2003C42.6181 25.2003 42.5853 25.2003 42.5088 25.2003C42.6399 25.0994 42.7929 25.0096 42.9896 24.9198Z" fill="#37012E"/>
<path d="M69.7952 19.4669C69.8935 19.3771 70.0356 19.2986 70.1995 19.22C70.1011 19.3098 69.9591 19.3883 69.7952 19.4669Z" fill="#37012E"/>
<path d="M45.055 24.0223C44.9567 24.1121 44.8255 24.1906 44.6616 24.2691C44.76 24.1906 44.8911 24.1008 45.055 24.0223Z" fill="#37012E"/>
<path d="M44.3447 24.3477C44.2573 24.4262 44.1589 24.4823 44.0168 24.5384C44.1043 24.4599 44.2135 24.3926 44.3447 24.3477Z" fill="#37012E"/>
<path d="M50.5734 27.9606C50.5297 27.9606 50.5078 27.9606 50.4641 27.9381C50.5078 27.8484 50.5952 27.7698 50.6936 27.6913C50.7154 27.7586 50.7154 27.8147 50.7045 27.9045C50.6717 27.9381 50.639 27.9493 50.5734 27.9606Z" fill="#59024B"/>
<path d="M41.5581 25.5482C41.6236 25.5482 41.6673 25.5482 41.7329 25.5594C41.6673 25.6155 41.569 25.6828 41.4378 25.7389C41.4269 25.694 41.4488 25.6492 41.4925 25.5818C41.5034 25.5594 41.5362 25.5594 41.5581 25.5482Z" fill="#59024B"/>
<path d="M51.6443 27.4109C51.5788 27.4109 51.535 27.4108 51.4695 27.3996C51.535 27.3323 51.6334 27.2762 51.7645 27.2201C51.7755 27.265 51.7536 27.3099 51.7208 27.3772C51.699 27.3996 51.6662 27.3996 51.6443 27.4109Z" fill="#59024B"/>
<path d="M46.213 23.6296C46.1912 23.6745 46.1475 23.7193 46.0819 23.7867C46.0272 23.8091 45.9945 23.8203 45.918 23.8091C45.9835 23.753 46.0819 23.6969 46.213 23.6296Z" fill="#37012E"/>
<path d="M61.6543 22.7881C61.698 22.732 61.7636 22.6759 61.8729 22.6198C61.8291 22.6759 61.7636 22.732 61.6543 22.7881Z" fill="#37012E"/>
<path d="M75.8821 17.077C75.9039 17.0209 75.9476 16.9761 76.0241 16.92C76.0023 16.9761 75.9586 17.0322 75.8821 17.077Z" fill="#37012E"/>
<path d="M59.5889 23.6969C59.6107 23.6408 59.6544 23.5959 59.7309 23.5398C59.72 23.5959 59.6654 23.652 59.5889 23.6969Z" fill="#37012E"/>
<path d="M74.0024 17.8174C74.0243 17.7613 74.068 17.7165 74.1445 17.6604C74.1227 17.7165 74.0789 17.7613 74.0024 17.8174Z" fill="#37012E"/>
<path d="M45.5141 23.8428C45.4923 23.8989 45.4486 23.9438 45.3721 23.9887C45.383 23.9438 45.4376 23.8877 45.5141 23.8428Z" fill="#37012E"/>
<path d="M58.6052 24.1569C58.6271 24.1008 58.6708 24.056 58.7364 23.9999C58.7254 24.0447 58.6817 24.1008 58.6052 24.1569Z" fill="#37012E"/>
<path d="M58.1572 24.3364C58.1791 24.2803 58.2228 24.2355 58.2993 24.1794C58.2774 24.2355 58.2337 24.2915 58.1572 24.3364Z" fill="#37012E"/>
<path d="M57.1736 24.7965C57.1954 24.7404 57.2392 24.6955 57.3156 24.6394C57.2938 24.6955 57.2501 24.7516 57.1736 24.7965Z" fill="#37012E"/>
<path d="M63.7959 21.8568C63.8178 21.8007 63.8615 21.7558 63.938 21.711C63.9161 21.7558 63.8724 21.8119 63.7959 21.8568Z" fill="#37012E"/>
<path d="M69.0742 19.7473C69.0961 19.6912 69.1398 19.6464 69.2163 19.6015C69.2053 19.6464 69.1507 19.7025 69.0742 19.7473Z" fill="#37012E"/>
<path d="M68.3638 20.0279C68.3856 19.9718 68.4293 19.9269 68.5058 19.8708C68.484 19.9269 68.4403 19.9718 68.3638 20.0279Z" fill="#37012E"/>
<path d="M46.7597 23.4276C46.727 23.4725 46.6832 23.5061 46.6177 23.5286C46.6505 23.4949 46.6942 23.45 46.7597 23.4276Z" fill="#37012E"/>
<path d="M60.2229 23.4164C60.2448 23.3603 60.2885 23.3154 60.365 23.2705C60.3431 23.3154 60.2885 23.3715 60.2229 23.4164Z" fill="#37012E"/>
<path d="M60.6707 23.2369C60.6925 23.1808 60.7362 23.1359 60.8127 23.0798C60.7909 23.1359 60.7471 23.192 60.6707 23.2369Z" fill="#37012E"/>
<path d="M61.2935 22.9563C61.3153 22.9002 61.359 22.8554 61.4355 22.7993C61.4137 22.8554 61.37 22.9115 61.2935 22.9563Z" fill="#37012E"/>
<path d="M66.4841 20.7573C66.506 20.7012 66.5497 20.6563 66.6262 20.6114C66.6043 20.6563 66.5606 20.7124 66.4841 20.7573Z" fill="#37012E"/>
<path d="M62.2771 22.5074C62.299 22.4513 62.3427 22.4065 62.4192 22.3504C62.3973 22.4065 62.3536 22.4513 62.2771 22.5074Z" fill="#37012E"/>
<path d="M65.4133 21.2173C65.4352 21.1612 65.4789 21.1163 65.5554 21.0714C65.5335 21.1163 65.4898 21.1724 65.4133 21.2173Z" fill="#37012E"/>
<path d="M64.9653 21.3519C64.9981 21.307 65.0418 21.2734 65.1074 21.2509C65.0746 21.2846 65.0309 21.3295 64.9653 21.3519Z" fill="#37012E"/>
<path d="M62.7251 22.3167C62.747 22.2606 62.7907 22.2158 62.8672 22.1597C62.8453 22.2158 62.8016 22.2719 62.7251 22.3167Z" fill="#37012E"/>
<path d="M49.7867 28.2298C49.7977 28.2747 49.7758 28.3196 49.7321 28.3869C49.5682 28.4655 49.4043 28.5328 49.2185 28.5889C49.3824 28.4655 49.5682 28.342 49.7867 28.2298Z" fill="#59024B"/>
<path d="M54.6385 25.7614C54.5402 25.8512 54.409 25.9297 54.2451 26.0195C54.3325 25.9297 54.4637 25.84 54.6385 25.7614Z" fill="#59024B"/>
<path d="M55.5347 25.3014C55.4582 25.3911 55.3598 25.4697 55.2178 25.5482C55.2943 25.4697 55.3926 25.3799 55.5347 25.3014Z" fill="#59024B"/>
<path d="M52.1362 26.9619C52.0925 27.0517 52.016 27.1302 51.9067 27.2088C51.9504 27.119 52.0269 27.0405 52.1362 26.9619Z" fill="#59024B"/>
<path d="M49 28.6113C48.9563 28.6674 48.8908 28.7235 48.7815 28.7796C48.8252 28.7235 48.8908 28.6674 49 28.6113Z" fill="#59024B"/>
<path d="M47.8307 29.2508C47.787 29.3069 47.7214 29.363 47.623 29.4191C47.6558 29.363 47.7323 29.3069 47.8307 29.2508Z" fill="#59024B"/>
<path d="M47.1094 29.6997C47.1204 29.7446 47.0876 29.7894 47.0548 29.8568C47.0001 29.8792 46.9674 29.8792 46.8909 29.8792C46.9346 29.8119 47.0001 29.7558 47.1094 29.6997Z" fill="#59024B"/>
<path d="M47.3059 29.5426C47.295 29.5987 47.2404 29.6436 47.1748 29.6997C47.1857 29.6436 47.2294 29.5875 47.3059 29.5426Z" fill="#59024B"/>
<path d="M42.6726 25.2117C42.6945 25.1556 42.7382 25.1331 42.8037 25.0995C42.7928 25.1444 42.7382 25.1892 42.6726 25.2117Z" fill="#59024B"/>
<path d="M54.9992 25.582C54.9774 25.6381 54.9337 25.683 54.8572 25.7391C54.8681 25.683 54.9227 25.6269 54.9992 25.582Z" fill="#59024B"/>
<path d="M52.4858 26.7713C52.464 26.8274 52.4202 26.8723 52.3438 26.9284C52.3656 26.8835 52.4093 26.8274 52.4858 26.7713Z" fill="#59024B"/>
<path d="M51.24 27.422C51.2181 27.4781 51.1744 27.523 51.0979 27.5791C51.1198 27.523 51.1635 27.4669 51.24 27.422Z" fill="#59024B"/>
<path d="M62.2442 52.8581C61.4465 51.9493 60.6597 51.0741 59.8729 50.1989C58.1791 48.3027 56.4744 46.4065 54.7697 44.5215C53.819 43.4668 52.8355 42.4458 51.9066 41.3686C51.0652 40.4037 50.2347 39.4276 49.4807 38.3953C48.9561 37.6884 48.5627 36.8694 48.4862 35.983C48.3988 35.0068 48.7813 34.1541 49.426 33.4472C50.3658 32.4037 51.5788 31.7305 52.7481 30.99C53.7097 30.3841 54.6713 29.7894 55.6658 29.2509C56.9334 28.5552 58.2228 27.9045 59.5123 27.2761C61.1733 26.4571 62.8234 25.638 64.5063 24.8862C65.6537 24.3701 66.8557 23.955 68.025 23.5062C69.4128 22.9788 70.8006 22.4403 72.1994 21.9353C74.1991 21.2285 76.2098 20.5553 78.2205 19.8708C78.3407 19.826 78.4719 19.826 78.6358 19.8933C78.1768 20.1401 77.7179 20.387 77.2589 20.6338C75.3138 21.6661 73.3577 22.6759 71.4454 23.753C69.8062 24.6731 68.178 25.6043 66.6153 26.6478C64.7248 27.9157 62.8999 29.2845 61.3482 31.0012C60.4958 31.9437 59.6981 32.9199 59.2937 34.1765C59.0533 34.9283 59.1189 35.5791 59.6653 36.1625C60.6816 37.2509 61.7088 38.3392 62.7141 39.4388C63.6758 40.4823 64.6155 41.537 65.5663 42.5804C67.3256 44.5327 69.0631 46.4963 70.8334 48.4373C72.4398 50.2101 74.0789 51.9605 75.6962 53.722C75.8164 53.8567 75.9039 54.0362 76.035 54.2269C75.9039 54.2718 75.8383 54.3167 75.7727 54.3167C72.3086 54.3279 68.8446 54.3279 65.3805 54.3279C64.8887 54.3279 64.3861 54.3279 63.9162 54.2269C63.5993 54.1596 63.3042 53.924 63.0529 53.7108C62.7578 53.4752 62.5174 53.161 62.2442 52.8581Z" fill="#F10079"/>
<path d="M37.6458 75.4555C39.1101 76.4653 39.5909 77.9015 39.427 79.6182C39.2958 81.0768 37.8534 82.6701 36.4328 82.973C35.045 83.2647 33.8101 83.0067 32.7174 82.053C30.9689 80.5382 30.9143 77.5986 32.4769 76.039C33.8866 74.614 36.1814 74.412 37.6458 75.4555Z" fill="#ED0076"/>
</svg>
